<?xml version="1.0" ?><!DOCTYPE svg  PUBLIC '-//W3C//DTD SVG 1.1//EN'  'http://www.w3.org/Graphics/SVG/1.1/DTD/svg11.dtd'><svg enable-background="new 0 0 600 600" height="600px" id="Calque_1" version="1.1" viewBox="0 0 600 600" width="600px" xml:space="preserve" xmlns="http://www.w3.org/2000/svg" xmlns:xlink="http://www.w3.org/1999/xlink"><circle cx="300" cy="300" fill="#FAC15D" r="300"/><path d="M175.653,241.667c-1.787-0.33-3.609-0.532-5.356-1.011c-13.882-3.809-22.782-12.766-26.855-26.474  c-2.491-8.389-1.555-16.749,0.959-24.987c2.419-7.922,6.056-15.307,10.391-22.321c5.093-8.245,10.437-16.334,15.639-24.512  c3.001-4.716,5.897-9.498,8.049-14.684c0.064-0.157,0.158-0.305,0.277-0.533c1.021,2.099,1.83,4.188,2.983,6.065  c4.545,7.397,9.151,14.758,13.829,22.072c5.288,8.258,10.521,16.536,14.467,25.55c2.491,5.686,4.39,11.551,5.186,17.725  c2.59,20.111-10.037,38.212-29.023,42.378c-1.413,0.31-2.851,0.489-4.276,0.732C179.833,241.667,177.743,241.667,175.653,241.667z   M158.237,175.517c-0.048,0.054-0.137,0.124-0.186,0.217c-0.737,1.419-1.507,2.825-2.196,4.268  c-3.404,7.121-6.243,14.408-6.498,22.446c-0.332,10.536,3.48,19.201,11.69,25.853c2.978,2.41,6.357,4.08,10.234,5.146  c-0.184-0.225-0.234-0.317-0.308-0.369c-3.08-2.09-5.485-4.824-7.429-7.954c-7.074-11.394-8.934-23.836-7.25-36.943  C156.84,183.943,157.584,179.732,158.237,175.517z"/><path d="M221.995,340.102l-6.406-23.707c-1.088-4.02-5.228-6.396-9.248-5.311l-65.278,17.648  c-4.02,1.086-6.399,5.228-5.31,9.248l6.408,23.703c0.568,2.104,1.974,3.75,3.758,4.693l75.699-21.277  C222.286,343.579,222.463,341.83,221.995,340.102z" fill="#4F4F4F"/><path d="M481.094,293.863H287.957h-1.96c-4.917,0.164-17.799,1.672-23.091,12.688  c-5.869,12.209-17.127,38.055-17.127,38.055s-2.22,5.073-11.416,7.611c-0.755,0.211-2.078,0.57-3.854,1.053  c0.454-1.237,0.561-2.629,0.216-4.012c-0.864-3.467-4.212-5.532-7.481-4.615l-1.626,0.457c-0.887,2.017-2.641,3.63-4.932,4.25  l-65.278,17.646c-1.919,0.518-3.861,0.241-5.489-0.619l-1.626,0.457c-3.267,0.918-5.215,4.475-4.347,7.941  c0.244,0.977,0.69,1.84,1.27,2.557c-4.994,1.344-8.021,2.156-8.021,2.156s-5.18,1.586-5.18,11.418v154.911  c22.583,15.83,47.445,28.625,74,37.798V461.313c0-2.619,0.493-5.121,1.353-7.445c-15.24-14.727-30.482-29.455-45.725-44.178  c-8.838-8.541,4.631-21.98,13.457-13.455c15.351,14.832,30.701,29.662,46.053,44.494c2.031-0.635,4.189-0.98,6.426-0.98h208.887  c1.756,0,3.453,0.234,5.087,0.633c15.233-14.717,30.461-29.434,45.695-44.148c8.822-8.523,22.293,4.916,13.453,13.455  c-14.832,14.326-29.659,28.658-44.49,42.986c1.164,2.648,1.82,5.568,1.82,8.641v96.157c24.649-14.778,46.995-32.994,66.385-53.987  V333.189C520.419,311.47,502.812,293.863,481.094,293.863z M481.94,348.412c0,7.004-5.679,12.688-12.688,12.688H298.845  c-7.007,0-12.686-5.681-12.686-12.688v-18.185c0-7.005,5.679-12.685,12.686-12.685h170.407c7.004,0,12.688,5.68,12.688,12.685  V348.412z" fill="#13B09F"/><path d="M151.408,366.996l65.278-17.646c2.291-0.62,4.045-2.233,4.932-4.25l-75.699,21.277  C147.547,367.237,149.489,367.514,151.408,366.996z" fill="#13B09F"/><path d="M435.676,459.287c-0.762-0.441-1.47-0.98-2.105-1.596c-0.352-0.107-0.716-0.182-1.104-0.182H223.578  c-2.097,0-3.804,1.707-3.804,3.805v127.819C245.312,596.205,272.212,600,300,600c49.066,0,95.379-11.782,136.269-32.667V461.313  C436.27,460.566,436.048,459.877,435.676,459.287z" fill="#4F4F4F"/><path d="M597.934,264.795c-5.649-9.062-12.082-17.262-18.84-24.532c-10.021-10.802-20.693-19.712-30.995-27.136  c-2.564-1.886-5.15-3.605-7.648-5.322c-2.552-1.645-5.017-3.297-7.48-4.785c-4.896-3.066-9.652-5.735-14.143-8.219  c-9.009-4.88-17.059-8.714-23.76-11.674c-3.362-1.477-6.331-2.762-9.009-3.855c-1.332-0.543-2.572-1.044-3.703-1.504  c-0.57-0.23-1.113-0.449-1.627-0.659c-0.494-0.193-0.963-0.375-1.406-0.547c-3.532-1.362-5.412-2.09-5.412-2.09l-0.007,0.062  c-3.157-1.258-6.896-2.521-11.33-4.004c-14.565-4.867-57.97-20.568-62.438-22.385c-7.539-3.059-2.545-8.412-14.138-12.722  c-11.601-4.309-36.189-11.873-36.189-11.873l-7.788,8.439c-14.131-6.485-108.322-50.261-120.362-56.108  c-15.087-7.328-24.753-6.625-33.003-2.979c-8.248,3.648-26.421,20.043-26.421,20.043l18.536,15.384c0,0,3.706-3.792,7.221-7.385  c3.509-3.593,10.768-7.824,23.055-3.619c10.091,3.451,101.662,47.753,113.337,53.781l-9.091,9.851l19.146,16.956  c0,0-14.117,14.82-22.681,23.678c-8.168,8.455-13.479,29.551,4.747,39.601c29.728,16.394,56.519,28.138,64.616,31.542  c6.742,2.83,10.702,3.43,17.219,3.651c6.521,0.222,27.85,1.162,35.848,1.369c8.002,0.204,13.911-0.752,20.081-4.969  c6.171-4.218,32.604-23.468,40.524-29.78c7.923-6.309,12.864-14.359,7.7-25.555c-0.642-1.391-1.334-2.879-2.057-4.422  c2.346,1.055,4.769,2.175,7.278,3.383c4.225,2.086,8.721,4.324,13.316,6.906c2.326,1.251,4.629,2.648,7.022,4.031  c2.348,1.453,4.773,2.904,7.167,4.498c9.655,6.268,19.598,13.812,28.921,22.93c9.313,9.1,17.956,19.848,24.636,32.185  c4.894,8.991,8.618,18.879,10.782,29.272c0.286-5.375,0.44-10.786,0.44-16.232C600,288.088,599.283,276.346,597.934,264.795z   M470.596,224.332c-4.266,2.862-26.277,20.139-31.565,23.605c-5.289,3.467-10.479,3.378-10.479,3.378s-20.29-0.806-24.885-1.048  c-4.589-0.246-5.322,0.946-11.567-1.497c-4.625-1.811-55.078-26.023-55.078-26.023s10.154-11.22,20.906-23.083  c5.599,0.688,15.146,2.99,29.211,10.02c24.569,12.283,30.736,15.432,33.822,20.845c3.085,5.411,6.581,9.488,11.246,5.792  c2.985-2.37,1.214-7.467-1.433-12.844c-2.639-5.375-8.898-14.944-15.998-19.122c-4.252-2.5-25.522-13.072-41.913-21.157  c5.026-5.533,8.824-9.704,9.776-10.719c3.515-3.741,6.282-7.328,10.299-5.893c4.019,1.437,58.577,21.245,65.414,23.685  c6.84,2.439,9.076,3.449,10.739,6.836c1.671,3.389,4.537,8.093,7.131,14.875C478.822,218.761,474.856,221.471,470.596,224.332z" fill="#50504F"/></svg>